<?xml version="1.0" encoding="UTF-8" standalone="no"?>
<svg
   xmlns:dc="http://purl.org/dc/elements/1.1/"
   xmlns:cc="http://creativecommons.org/ns#"
   xmlns:rdf="http://www.w3.org/1999/02/22-rdf-syntax-ns#"
   xmlns:svg="http://www.w3.org/2000/svg"
   xmlns="http://www.w3.org/2000/svg"
   xmlns:sodipodi="http://sodipodi.sourceforge.net/DTD/sodipodi-0.dtd"
   xmlns:inkscape="http://www.inkscape.org/namespaces/inkscape"
   width="128"
   height="128"
   style="enable-background:new 0 0 128 128;"
   version="1.1"
   id="svg196"
   sodipodi:docname="high5.svg"
   inkscape:version="0.92.4 5da689c313, 2019-01-14">
  <metadata
     id="metadata202">
    <rdf:RDF>
      <cc:Work
         rdf:about="">
        <dc:format>image/svg+xml</dc:format>
        <dc:type
           rdf:resource="http://purl.org/dc/dcmitype/StillImage" />
        <dc:title></dc:title>
      </cc:Work>
    </rdf:RDF>
  </metadata>
  <defs
     id="defs200" />
  <sodipodi:namedview
     pagecolor="#ffffff"
     bordercolor="#666666"
     borderopacity="1"
     objecttolerance="10"
     gridtolerance="10"
     guidetolerance="10"
     inkscape:pageopacity="0"
     inkscape:pageshadow="2"
     inkscape:window-width="1920"
     inkscape:window-height="1016"
     id="namedview198"
     showgrid="false"
     inkscape:zoom="3.6875"
     inkscape:cx="-20.182476"
     inkscape:cy="51.416979"
     inkscape:window-x="0"
     inkscape:window-y="30"
     inkscape:window-maximized="1"
     inkscape:current-layer="svg196"
     inkscape:snap-bbox="true"
     inkscape:bbox-paths="true"
     inkscape:bbox-nodes="true"
     inkscape:snap-bbox-edge-midpoints="true"
     inkscape:snap-bbox-midpoints="true"
     inkscape:snap-object-midpoints="true"
     inkscape:snap-center="true" />
  <g
     id="g4775"
     transform="matrix(1.4159521,0,0,1.4159521,177.16485,-57.862754)">
    <path
       inkscape:connector-curvature="0"
       id="path159"
       style="fill:none;stroke:#5361fd;stroke-opacity:1"
       d="m -70.282203,115.07712 c 6.6,-0.24 11.89,-7.84 12.39,-9.38 0.52,-1.18 0.98,-2.25 1.39,-3.2 0.78,-1.77 1.64,-3.770001 2.51,-5.830001 0.37,-0.87 0.54,-1.27 0.54,-1.27 l -0.01,0.01 c 3.18,-7.53 6.37,-15.38 6.37,-15.38 0.62,-1.33 -0.29,-2.84 -1.81,-3.04 -4.4,-0.57 -7.78,1.43 -9.61,5.24 l -3.72,8.74 c -0.35,1.04 -1.96,1 -2.21,-0.07 -0.93,-3.99 -0.49,-11.67 -0.49,-11.67 -0.19,-3.5 1.09,-24.29 1.28,-25.59 0.37,-2.47 -0.74,-4.92 -3.01,-5.19 -2.32,-0.28 -4.24,0.95 -4.61,3.71 -0.11,0.8 -2.35,22.28 -2.35,22.28 0.01,1.22 -1.3,1.45 -1.39,0.2 -0.2,-2.79 -0.86,-26.11 -0.82,-27.31 0.08,-2.5 -1.3,-4.82 -3.59,-4.86 -2.34,-0.04 -4.11,1.37 -4.16,4.15 -0.01,0.88 -0.29,19.84 -0.33,27.29 0,0.5 -0.41,0.9 -0.94,0.94 -0.01,0 -0.01,0 -0.02,0 -0.5,0.03 -0.94,-0.31 -0.99,-0.78 -0.85,-6.89 -2.02,-21.82 -2.05,-22.91 -0.07,-2.5 -1.58,-4.74 -3.87,-4.66 -2.34,0.08 -4.02,1.59 -3.9,4.36 0.04,0.84 0.8,16.52 1.22,24.13 0.03,0.57 -0.38,1.06 -0.97,1.19 -0.01,0 -0.02,0 -0.02,0.01 -0.69,0.16 -1.38,-0.25 -1.54,-0.9 -1.39,-5.59 -2.93,-12.56 -3.079997,-13.41 -0.41,-2.47 -2.22,-4.51 -4.48,-4.15 -2.31,0.37 -3.77,2.07 -3.27,4.8 0.16,0.89 2.19,13.72 3.68,19.95 0.32,1.33 0.54,2.69 0.67,4.05 0.54,5.76 0.92,8.43 0.92,8.43 1.06,15.400001 8.579997,19.740001 19.769997,20.260001 z" />
    <path
       sodipodi:nodetypes="ccscccc"
       inkscape:connector-curvature="0"
       id="path161"
       style="fill:none;stroke:#5361fd;stroke-opacity:1"
       d="m -67.012203,129.62712 c 0,0 -0.54,-11.69794 2.76,-16.78794 -0.537398,0 -0.250358,2.84188 -15.528518,2.43298 -12.715585,-0.34032 -15.902481,-4.49946 -16.589119,-4.49946 2.24,0.64 1.297637,18.84442 1.297637,18.84442 h 28.06 z" />
  </g>
</svg>
